<!-- This Source Code Form is subject to the terms of the Mozilla Public
   - License, v. 2.0. If a copy of the MPL was not distributed with this
   - file, You can obtain one at http://mozilla.org/MPL/2.0/. -->
<svg xmlns="http://www.w3.org/2000/svg" id="emptyChat" width="16" height="16" viewBox="0 0 16 16" fill="none">
  <path fill="url(#a)" d="m13.886 1.429.685.685v8.343l-.685.686h-2.172a.57.57 0 0 0-.571.571v2.456L7.67 11.393a1.14 1.14 0 0 0-.714-.25H2.114l-.685-.686V2.114l.685-.685ZM13.714 0H2.286A2.286 2.286 0 0 0 0 2.286v8a2.286 2.286 0 0 0 2.286 2.285h4.571L11.143 16h1.428v-3.429h1.143A2.286 2.286 0 0 0 16 10.286v-8A2.286 2.286 0 0 0 13.714 0" style="fill:url(#a);stroke-width:1.14285"/>
  <defs>
    <linearGradient id="a" x1="0" x2="14" y1="7" y2="7" gradientTransform="scale(1.14286)" gradientUnits="userSpaceOnUse">
      <stop stop-color="#8341ca"/>
      <stop offset="1" stop-color="#656fff"/>
    </linearGradient>
  </defs>
</svg>