<!-- This Source Code Form is subject to the terms of the Mozilla Public
   - License, v. 2.0. If a copy of the MPL was not distributed with this
   - file, You can obtain one at http://mozilla.org/MPL/2.0/. -->
<svg xmlns="http://www.w3.org/2000/svg" id="viewChats" width="16" height="16" viewBox="0 0 16 16" fill="context-fill">
  <path fill-rule="evenodd" d="M13.714 0H2.286C1.68 0 1.098.241.67.67L.518.837A2.3 2.3 0 0 0 0 2.286v8c0 .606.241 1.187.67 1.616l.167.152c.407.333.918.517 1.449.517h4.571L11.143 16h1.428v-3.429h1.143A2.286 2.286 0 0 0 16 10.286v-8A2.286 2.286 0 0 0 13.714 0M1.43 2.114l.685-.685h11.772l.685.685v8.344l-.685.685h-2.172a.57.57 0 0 0-.571.571v2.457L7.67 11.393a1.14 1.14 0 0 0-.715-.25H2.114l-.685-.685Zm12.457-.685v-.273q.111.017.216.056zm-2.315 3.428H4.43a.714.714 0 0 1 0-1.428h7.142a.714.714 0 1 1 0 1.428M10 7.571c0 .19-.075.372-.209.506l-.11.088a.7.7 0 0 1-.395.12H4.429a.7.7 0 0 1-.397-.12l-.109-.088a.715.715 0 0 1 .506-1.22h4.857a.715.715 0 0 1 .714.714" clip-rule="evenodd"/>
</svg>
